# xmcd CD database file
#
# Track frame offsets:
#	150
#	9036
#	32853
#	65419
#	104759
#	131909
#	165233
#	190524
#	220342
#	257575
#
# Disc length: 4300 seconds
#
# Revision: 0
# Processed by: cddbd v1.5.2PL0 Copyright (c) Steve Scherf et al.
# Submitted via: CDex 1.70beta2
#
DISCID=8210ca0a
DTITLE=Amritakripa - Dancing Lotus
DYEAR=1900
DGENRE=New Age
TTITLE0=Loka
TTITLE1=Ganesh
TTITLE2=Shiva
TTITLE3=Shakti
TTITLE4=Tirukathakal
TTITLE5=Agamanta
TTITLE6=Jai Ma
TTITLE7=Krishna Mukti
TTITLE8=Govinda
TTITLE9=Lokah
EXTD=
EXTT0=
EXTT1=
EXTT2=
EXTT3=
EXTT4=
EXTT5=
EXTT6=
EXTT7=
EXTT8=
EXTT9=
PLAYORDER=
